<?xml version="1.0" encoding="UTF-8" standalone="no"?>
<!DOCTYPE svg PUBLIC "-//W3C//DTD SVG 1.1//EN" "http://www.w3.org/Graphics/SVG/1.1/DTD/svg11.dtd">
<svg width="100%" height="100%" viewBox="0 0 1000 1000" version="1.1" xmlns="http://www.w3.org/2000/svg" xmlns:xlink="http://www.w3.org/1999/xlink" xml:space="preserve" xmlns:serif="http://www.serif.com/" style="fill-rule:evenodd;clip-rule:evenodd;stroke-linejoin:round;stroke-miterlimit:2;">
    <circle cx="500" cy="500" r="500"/>
    <g transform="matrix(1.055072,0,0,1.055072,-27.53592,-27.53592)">
        <path d="M403.305,721.503L276.794,594.992L340.433,531.352L466.945,657.864L403.305,721.503Z" style="fill:rgb(34,173,255);"/>
    </g>
    <g transform="matrix(1.055072,0,0,1.055072,-27.53592,-27.53592)">
        <path d="M657.864,466.945L531.352,340.433L594.992,276.794L721.503,403.305L657.864,466.945Z" style="fill:rgb(255,56,56);"/>
    </g>
    <g transform="matrix(1.055072,-0,0,1.055072,-27.53592,-27.53592)">
        <path d="M721.503,403.305L839.411,521.213C856.973,538.775 856.973,567.291 839.411,584.853C821.849,602.415 793.333,602.415 775.772,584.853L657.864,466.945L721.503,403.305Z" style="fill:rgb(255,56,56);"/>
    </g>
    <g transform="matrix(1.055072,-0,0,1.055072,-27.53592,-27.53592)">
        <path d="M276.794,594.992L160.589,478.787C143.027,461.225 143.027,432.709 160.589,415.147C178.151,397.585 206.667,397.585 224.228,415.147L340.433,531.352L276.794,594.992Z" style="fill:rgb(34,173,255);"/>
    </g>
    <g transform="matrix(-0.746048,0.746048,-0.746048,-0.746048,1302.002087,854.373015)">
        <g>
            <g transform="matrix(0.911854,0,0,1,-147.720365,410)">
                <path d="M820,545C820,569.836 797.887,590 770.65,590L211.35,590C184.113,590 162,569.836 162,545C162,520.164 184.113,500 211.35,500L770.65,500C797.887,500 820,520.164 820,545Z" style="fill:white;"/>
            </g>
            <g transform="matrix(0.911854,0,0,1,-147.720365,410)">
                <path d="M820,545C820,569.836 797.887,590 770.65,590L211.35,590C184.113,590 162,569.836 162,545C162,520.164 184.113,500 211.35,500L770.65,500C797.887,500 820,520.164 820,545Z" style="fill:white;"/>
            </g>
            <g transform="matrix(0.911854,-0,0,1,-147.720365,50)">
                <path d="M820,545C820,569.836 797.887,590 770.65,590L211.35,590C184.113,590 162,569.836 162,545C162,520.164 184.113,500 211.35,500L770.65,500C797.887,500 820,520.164 820,545Z" style="fill:white;"/>
            </g>
        </g>
        <g transform="matrix(0.911854,-0,0,1,-147.720365,50)">
            <path d="M820,545C820,569.836 797.887,590 770.65,590L211.35,590C184.113,590 162,569.836 162,545C162,520.164 184.113,500 211.35,500L770.65,500C797.887,500 820,520.164 820,545Z" style="fill:white;"/>
        </g>
    </g>
    <g transform="matrix(1.055072,0,0,1.055072,-27.53592,-27.53592)">
        <path d="M466.945,657.864L584.853,775.772C602.415,793.333 602.415,821.849 584.853,839.411C567.291,856.973 538.775,856.973 521.213,839.411L403.305,721.503L466.945,657.864Z" style="fill:rgb(34,173,255);"/>
    </g>
    <g transform="matrix(1.055072,0,0,1.055072,-27.53592,-27.53592)">
        <path d="M531.352,340.433L415.147,224.228C397.585,206.667 397.585,178.151 415.147,160.589C432.709,143.027 461.225,143.027 478.787,160.589L594.992,276.794L531.352,340.433Z" style="fill:rgb(255,56,56);"/>
    </g>
</svg>
